# Blender v2.77 (sub 0) OBJ File: ''
# www.blender.org
mtllib quark.mtl
o Icosphere
v 0.014228 -1.001063 0.022440
v 0.737835 -0.448283 0.548165
v -0.262160 -0.448283 0.873089
v -0.880198 -0.448279 0.022440
v -0.262160 -0.448283 -0.828209
v 0.737835 -0.448283 -0.503286
v 0.290616 0.446156 0.873089
v -0.709380 0.446156 0.548165
v -0.709380 0.446156 -0.503286
v 0.290616 0.446156 -0.828209
v 0.908654 0.446152 0.022440
v 0.014228 0.998937 0.022440
v -0.148228 -0.851718 0.522435
v 0.439550 -0.851718 0.331451
v 0.277097 -0.526801 0.831451
v 0.864876 -0.526799 0.022440
v 0.439550 -0.851718 -0.286572
v -0.511502 -0.851715 0.022440
v -0.673962 -0.526800 0.522437
v -0.148228 -0.851718 -0.477556
v -0.673962 -0.526800 -0.477557
v 0.277097 -0.526801 -0.786572
v 0.965286 -0.001063 0.331452
v 0.965286 -0.001063 -0.286573
v 0.014228 -0.001063 1.022440
v 0.602013 -0.001063 0.831456
v -0.936830 -0.001063 0.331452
v -0.573558 -0.001063 0.831456
v -0.573558 -0.001063 -0.786577
v -0.936830 -0.001063 -0.286573
v 0.602013 -0.001063 -0.786577
v 0.014228 -0.001063 -0.977560
v 0.702417 0.524673 0.522437
v -0.248641 0.524674 0.831451
v -0.836420 0.524672 0.022440
v -0.248641 0.524674 -0.786572
v 0.702417 0.524673 -0.477557
v 0.176683 0.849591 0.522435
v 0.539958 0.849588 0.022440
v -0.411095 0.849591 0.331451
v -0.411095 0.849591 -0.286572
v 0.176683 0.849591 -0.477556
v -0.148228 -0.851718 0.522435
v -0.148228 -0.851718 0.522435
v -0.148228 -0.851718 0.522435
v -0.148228 -0.851718 0.522435
v -0.148228 -0.851718 0.522435
v 0.014228 -1.001063 0.022440
v 0.014228 -1.001063 0.022440
v 0.014228 -1.001063 0.022440
v 0.014228 -1.001063 0.022440
v 0.439550 -0.851718 0.331451
v 0.439550 -0.851718 0.331451
v 0.439550 -0.851718 0.331451
v 0.439550 -0.851718 0.331451
v 0.439550 -0.851718 0.331451
v 0.737835 -0.448283 0.548165
v 0.737835 -0.448283 0.548165
v 0.737835 -0.448283 0.548165
v 0.737835 -0.448283 0.548165
v 0.277097 -0.526801 0.831451
v 0.277097 -0.526801 0.831451
v 0.277097 -0.526801 0.831451
v 0.277097 -0.526801 0.831451
v 0.277097 -0.526801 0.831451
v -0.262160 -0.448283 0.873089
v -0.262160 -0.448283 0.873089
v -0.262160 -0.448283 0.873089
v -0.262160 -0.448283 0.873089
v 0.864876 -0.526799 0.022440
v 0.864876 -0.526799 0.022440
v 0.864876 -0.526799 0.022440
v 0.864876 -0.526799 0.022440
v 0.864876 -0.526799 0.022440
v 0.439550 -0.851718 -0.286572
v 0.439550 -0.851718 -0.286572
v 0.439550 -0.851718 -0.286572
v 0.439550 -0.851718 -0.286572
v 0.439550 -0.851718 -0.286572
v 0.737835 -0.448283 -0.503286
v 0.737835 -0.448283 -0.503286
v 0.737835 -0.448283 -0.503286
v 0.737835 -0.448283 -0.503286
v -0.511502 -0.851715 0.022440
v -0.511502 -0.851715 0.022440
v -0.511502 -0.851715 0.022440
v -0.511502 -0.851715 0.022440
v -0.511502 -0.851715 0.022440
v -0.673962 -0.526800 0.522437
v -0.673962 -0.526800 0.522437
v -0.673962 -0.526800 0.522437
v -0.673962 -0.526800 0.522437
v -0.673962 -0.526800 0.522437
v -0.880198 -0.448279 0.022440
v -0.880198 -0.448279 0.022440
v -0.880198 -0.448279 0.022440
v -0.880198 -0.448279 0.022440
v -0.148228 -0.851718 -0.477556
v -0.148228 -0.851718 -0.477556
v -0.148228 -0.851718 -0.477556
v -0.148228 -0.851718 -0.477556
v -0.148228 -0.851718 -0.477556
v -0.673962 -0.526800 -0.477557
v -0.673962 -0.526800 -0.477557
v -0.673962 -0.526800 -0.477557
v -0.673962 -0.526800 -0.477557
v -0.673962 -0.526800 -0.477557
v -0.262160 -0.448283 -0.828209
v -0.262160 -0.448283 -0.828209
v -0.262160 -0.448283 -0.828209
v -0.262160 -0.448283 -0.828209
v 0.277097 -0.526801 -0.786572
v 0.277097 -0.526801 -0.786572
v 0.277097 -0.526801 -0.786572
v 0.277097 -0.526801 -0.786572
v 0.277097 -0.526801 -0.786572
v 0.965286 -0.001063 0.331452
v 0.965286 -0.001063 0.331452
v 0.965286 -0.001063 0.331452
v 0.965286 -0.001063 0.331452
v 0.965286 -0.001063 0.331452
v 0.965286 -0.001063 -0.286573
v 0.965286 -0.001063 -0.286573
v 0.965286 -0.001063 -0.286573
v 0.965286 -0.001063 -0.286573
v 0.965286 -0.001063 -0.286573
v 0.908654 0.446152 0.022440
v 0.908654 0.446152 0.022440
v 0.908654 0.446152 0.022440
v 0.908654 0.446152 0.022440
v 0.014228 -0.001063 1.022440
v 0.014228 -0.001063 1.022440
v 0.014228 -0.001063 1.022440
v 0.014228 -0.001063 1.022440
v 0.014228 -0.001063 1.022440
v 0.602013 -0.001063 0.831456
v 0.602013 -0.001063 0.831456
v 0.602013 -0.001063 0.831456
v 0.602013 -0.001063 0.831456
v 0.602013 -0.001063 0.831456
v 0.290616 0.446156 0.873089
v 0.290616 0.446156 0.873089
v 0.290616 0.446156 0.873089
v 0.290616 0.446156 0.873089
v -0.936830 -0.001063 0.331452
v -0.936830 -0.001063 0.331452
v -0.936830 -0.001063 0.331452
v -0.936830 -0.001063 0.331452
v -0.936830 -0.001063 0.331452
v -0.573558 -0.001063 0.831456
v -0.573558 -0.001063 0.831456
v -0.573558 -0.001063 0.831456
v -0.573558 -0.001063 0.831456
v -0.573558 -0.001063 0.831456
v -0.709380 0.446156 0.548165
v -0.709380 0.446156 0.548165
v -0.709380 0.446156 0.548165
v -0.709380 0.446156 0.548165
v -0.573558 -0.001063 -0.786577
v -0.573558 -0.001063 -0.786577
v -0.573558 -0.001063 -0.786577
v -0.573558 -0.001063 -0.786577
v -0.573558 -0.001063 -0.786577
v -0.936830 -0.001063 -0.286573
v -0.936830 -0.001063 -0.286573
v -0.936830 -0.001063 -0.286573
v -0.936830 -0.001063 -0.286573
v -0.936830 -0.001063 -0.286573
v -0.709380 0.446156 -0.503286
v -0.709380 0.446156 -0.503286
v -0.709380 0.446156 -0.503286
v -0.709380 0.446156 -0.503286
v 0.602013 -0.001063 -0.786577
v 0.602013 -0.001063 -0.786577
v 0.602013 -0.001063 -0.786577
v 0.602013 -0.001063 -0.786577
v 0.602013 -0.001063 -0.786577
v 0.014228 -0.001063 -0.977560
v 0.014228 -0.001063 -0.977560
v 0.014228 -0.001063 -0.977560
v 0.014228 -0.001063 -0.977560
v 0.014228 -0.001063 -0.977560
v 0.290616 0.446156 -0.828209
v 0.290616 0.446156 -0.828209
v 0.290616 0.446156 -0.828209
v 0.290616 0.446156 -0.828209
v 0.702417 0.524673 0.522437
v 0.702417 0.524673 0.522437
v 0.702417 0.524673 0.522437
v 0.702417 0.524673 0.522437
v 0.702417 0.524673 0.522437
v -0.248641 0.524674 0.831451
v -0.248641 0.524674 0.831451
v -0.248641 0.524674 0.831451
v -0.248641 0.524674 0.831451
v -0.248641 0.524674 0.831451
v -0.836420 0.524672 0.022440
v -0.836420 0.524672 0.022440
v -0.836420 0.524672 0.022440
v -0.836420 0.524672 0.022440
v -0.836420 0.524672 0.022440
v -0.248641 0.524674 -0.786572
v -0.248641 0.524674 -0.786572
v -0.248641 0.524674 -0.786572
v -0.248641 0.524674 -0.786572
v -0.248641 0.524674 -0.786572
v 0.702417 0.524673 -0.477557
v 0.702417 0.524673 -0.477557
v 0.702417 0.524673 -0.477557
v 0.702417 0.524673 -0.477557
v 0.702417 0.524673 -0.477557
v 0.176683 0.849591 0.522435
v 0.176683 0.849591 0.522435
v 0.176683 0.849591 0.522435
v 0.176683 0.849591 0.522435
v 0.176683 0.849591 0.522435
v 0.539958 0.849588 0.022440
v 0.539958 0.849588 0.022440
v 0.539958 0.849588 0.022440
v 0.539958 0.849588 0.022440
v 0.539958 0.849588 0.022440
v 0.014228 0.998937 0.022440
v 0.014228 0.998937 0.022440
v 0.014228 0.998937 0.022440
v 0.014228 0.998937 0.022440
v -0.411095 0.849591 0.331451
v -0.411095 0.849591 0.331451
v -0.411095 0.849591 0.331451
v -0.411095 0.849591 0.331451
v -0.411095 0.849591 0.331451
v -0.411095 0.849591 -0.286572
v -0.411095 0.849591 -0.286572
v -0.411095 0.849591 -0.286572
v -0.411095 0.849591 -0.286572
v -0.411095 0.849591 -0.286572
v 0.176683 0.849591 -0.477556
v 0.176683 0.849591 -0.477556
v 0.176683 0.849591 -0.477556
v 0.176683 0.849591 -0.477556
v 0.176683 0.849591 -0.477556
vt 0.8583 0.7240
vt 0.7275 0.8165
vt 0.7275 0.6523
vt 0.6800 0.1866
vt 0.8273 0.1866
vt 0.7269 0.3362
vt 0.7868 0.1927
vt 0.7643 0.3403
vt 0.6690 0.1927
vt 0.6951 0.6987
vt 0.8129 0.6987
vt 0.7176 0.8462
vt 0.2187 0.3277
vt 0.2187 0.1785
vt 0.3627 0.2575
vt 0.1750 0.1555
vt 0.3012 0.2485
vt 0.1750 0.2915
vt 0.7805 0.2819
vt 0.6969 0.3302
vt 0.6969 0.1598
vt 0.7203 0.6964
vt 0.8682 0.7456
vt 0.7203 0.8523
vt 0.1998 0.3186
vt 0.1998 0.1583
vt 0.3497 0.2621
vt 0.6973 0.9693
vt 0.6973 0.8213
vt 0.8304 0.8880
vt 0.2577 0.2705
vt 0.2577 0.1137
vt 0.3983 0.2264
vt 0.7020 0.8358
vt 0.7020 0.6879
vt 0.8351 0.7546
vt 0.2294 0.2765
vt 0.2294 0.1205
vt 0.3557 0.1994
vt 0.7253 0.1306
vt 0.8692 0.2009
vt 0.7253 0.2799
vt 0.1734 0.3304
vt 0.1734 0.1745
vt 0.3213 0.2812
vt 0.1690 0.3354
vt 0.1690 0.1752
vt 0.3030 0.2700
vt 0.3280 0.2495
vt 0.1959 0.3320
vt 0.1959 0.1845
vt 0.1987 0.8332
vt 0.1987 0.6764
vt 0.3392 0.7892
vt 0.2710 0.7731
vt 0.3672 0.7805
vt 0.2710 0.9211
vt 0.7747 0.2167
vt 0.9077 0.2979
vt 0.7747 0.3647
vt 0.3540 0.6261
vt 0.2587 0.7736
vt 0.2362 0.6261
vt 0.9314 0.3031
vt 0.7872 0.3403
vt 0.7872 0.1914
vt 0.8204 0.8392
vt 0.6874 0.9204
vt 0.6874 0.7724
vt 0.2333 0.2860
vt 0.2333 0.1218
vt 0.3641 0.2143
vt 0.6591 0.3361
vt 0.6591 0.1559
vt 0.7857 0.2316
vt 0.3242 0.7375
vt 0.2299 0.7961
vt 0.2299 0.6911
vt 0.7471 0.7080
vt 0.8970 0.8118
vt 0.7471 0.8683
vt 0.8759 0.7462
vt 0.7186 0.8341
vt 0.7186 0.6539
vt 0.2613 0.1159
vt 0.3836 0.2140
vt 0.2613 0.2961
vt 0.3135 0.8023
vt 0.1696 0.8812
vt 0.1696 0.7320
vt 0.8552 0.7544
vt 0.7286 0.8301
vt 0.7286 0.6498
vt 0.3139 0.8582
vt 0.1975 0.8760
vt 0.1975 0.7267
vt 0.7753 0.2832
vt 0.7753 0.1076
vt 0.8743 0.1715
vt 0.7412 0.7764
vt 0.7412 0.6121
vt 0.8802 0.6617
vt 0.3137 0.7345
vt 0.1886 0.8122
vt 0.1886 0.6563
vt 0.6576 0.8885
vt 0.6576 0.7061
vt 0.7840 0.7973
vt 0.8407 0.7517
vt 0.7079 0.8284
vt 0.7079 0.6750
vt 0.2344 0.2879
vt 0.2344 0.1320
vt 0.3823 0.1812
vt 0.2592 0.3089
vt 0.2592 0.1385
vt 0.3428 0.1868
vt 0.5935 0.7037
vt 0.7201 0.8083
vt 0.5935 0.8840
vt 0.3421 0.2537
vt 0.2170 0.3314
vt 0.2170 0.1756
vt 0.7151 0.7901
vt 0.7151 0.6567
vt 0.8438 0.7462
vt 0.8527 0.2887
vt 0.7086 0.3259
vt 0.7086 0.1770
vt 0.8353 0.7727
vt 0.7023 0.8539
vt 0.7023 0.7059
vt 0.8880 0.8039
vt 0.7549 0.8707
vt 0.7549 0.7227
vt 0.1764 0.6675
vt 0.3206 0.7047
vt 0.1764 0.8164
vt 0.7787 0.1255
vt 0.8777 0.2372
vt 0.7787 0.3011
vt 0.7103 0.1762
vt 0.8602 0.2800
vt 0.7103 0.3365
vt 0.6939 0.6455
vt 0.8493 0.7367
vt 0.6939 0.8279
vt 0.1818 0.3355
vt 0.1818 0.1787
vt 0.3223 0.2227
vt 0.8367 0.2610
vt 0.7037 0.3278
vt 0.7037 0.1798
vt 0.2811 0.7519
vt 0.2811 0.6030
vt 0.4252 0.7147
vt 0.3020 0.3033
vt 0.1856 0.3210
vt 0.1856 0.1718
vt 0.6830 0.7014
vt 0.6830 0.5941
vt 0.7558 0.6525
vt 0.2671 0.8200
vt 0.2671 0.6377
vt 0.4225 0.7288
vt 0.3073 0.7267
vt 0.1917 0.7629
vt 0.1917 0.6339
vt 0.3228 0.7428
vt 0.1749 0.8494
vt 0.1749 0.6935
vt 0.1600 0.6996
vt 0.3179 0.7908
vt 0.1600 0.8820
vt 0.8157 0.8241
vt 0.6678 0.8733
vt 0.6678 0.7174
vt 0.7265 0.7527
vt 0.5924 0.8475
vt 0.5924 0.6872
vt 0.2417 0.3550
vt 0.1493 0.2003
vt 0.2968 0.2003
vt 0.2140 0.8053
vt 0.2140 0.6495
vt 0.3391 0.7272
vt 0.3036 0.7747
vt 0.3036 0.6910
vt 0.3779 0.7374
vt 0.8565 0.7519
vt 0.7124 0.8636
vt 0.7124 0.7147
vt 0.2431 0.6891
vt 0.3753 0.7554
vt 0.2431 0.8380
vt 0.6974 0.1512
vt 0.8297 0.2163
vt 0.6974 0.2985
vt 0.2090 0.8238
vt 0.2090 0.6596
vt 0.3480 0.7743
vt 0.7005 0.4072
vt 0.7005 0.2579
vt 0.8170 0.2757
vt 0.8321 0.7400
vt 0.6980 0.8348
vt 0.6980 0.6745
vt 0.1916 0.7147
vt 0.3007 0.8047
vt 0.1916 0.8436
vt 0.2058 0.3152
vt 0.2058 0.1593
vt 0.3310 0.2370
vt 0.6956 0.8100
vt 0.6956 0.6611
vt 0.8278 0.7437
vt 0.1865 0.1704
vt 0.3307 0.2821
vt 0.1865 0.3193
vt 0.7185 0.2866
vt 0.7185 0.1386
vt 0.8516 0.2198
vt 0.6915 0.9357
vt 0.5911 0.7861
vt 0.7384 0.7861
vt 0.8752 0.8125
vt 0.7198 0.9037
vt 0.7198 0.7213
vt 0.1940 0.6782
vt 0.3257 0.7694
vt 0.1940 0.8606
vt 0.7847 0.8544
vt 0.6995 0.7069
vt 0.7960 0.7069
vt 0.2361 0.6347
vt 0.3627 0.7392
vt 0.2361 0.8149
vt 0.1255 0.3009
vt 0.1255 0.1535
vt 0.2579 0.2357
vn 0.1024 -0.9435 0.3151
vn 0.7002 -0.6617 0.2680
vn -0.2680 -0.9435 0.1947
vn -0.2680 -0.9435 -0.1947
vn 0.1024 -0.9435 -0.3151
vn 0.9050 -0.3304 0.2680
vn 0.0247 -0.3304 0.9435
vn -0.8897 -0.3304 0.3151
vn -0.5746 -0.3304 -0.7488
vn 0.5346 -0.3304 -0.7779
vn 0.8026 -0.1256 0.5831
vn -0.3066 -0.1256 0.9435
vn -0.9921 -0.1256 0.0000
vn -0.3066 -0.1256 -0.9435
vn 0.8026 -0.1256 -0.5831
vn 0.4089 0.6617 0.6284
vn -0.4713 0.6617 0.5831
vn -0.7002 0.6617 -0.2680
vn 0.0385 0.6617 -0.7488
vn 0.7240 0.6617 -0.1947
vn 0.2680 0.9435 -0.1947
vn 0.4911 0.7947 -0.3568
vn 0.4089 0.6617 -0.6284
vn -0.1024 0.9435 -0.3151
vn -0.1876 0.7947 -0.5773
vn -0.4713 0.6617 -0.5831
vn -0.3313 0.9435 0.0000
vn -0.6071 0.7947 0.0000
vn -0.7002 0.6617 0.2680
vn -0.1024 0.9435 0.3151
vn -0.1876 0.7947 0.5773
vn 0.0385 0.6617 0.7488
vn 0.2680 0.9435 0.1947
vn 0.4911 0.7947 0.3568
vn 0.7240 0.6617 0.1947
vn 0.8897 0.3304 -0.3151
vn 0.7947 0.1876 -0.5773
vn 0.5746 0.3304 -0.7488
vn -0.0247 0.3304 -0.9435
vn -0.3035 0.1876 -0.9342
vn -0.5346 0.3304 -0.7779
vn -0.9050 0.3304 -0.2680
vn -0.9822 0.1876 0.0000
vn -0.9050 0.3304 0.2680
vn -0.5346 0.3304 0.7779
vn -0.3035 0.1876 0.9342
vn -0.0247 0.3304 0.9435
vn 0.5746 0.3304 0.7488
vn 0.7947 0.1876 0.5773
vn 0.8897 0.3304 0.3151
vn 0.3066 0.1256 -0.9435
vn 0.3035 -0.1876 -0.9342
vn 0.0247 -0.3304 -0.9435
vn -0.8026 0.1256 -0.5831
vn -0.7947 -0.1876 -0.5773
vn -0.8897 -0.3304 -0.3151
vn -0.8026 0.1256 0.5831
vn -0.7947 -0.1876 0.5773
vn -0.5746 -0.3304 0.7488
vn 0.3066 0.1256 0.9435
vn 0.3035 -0.1876 0.9342
vn 0.5346 -0.3304 0.7779
vn 0.9921 0.1256 0.0000
vn 0.9822 -0.1876 0.0000
vn 0.9050 -0.3304 -0.2680
vn 0.4713 -0.6617 -0.5831
vn 0.1876 -0.7947 -0.5773
vn -0.0385 -0.6617 -0.7488
vn -0.4089 -0.6617 -0.6284
vn -0.4911 -0.7947 -0.3568
vn -0.7240 -0.6617 -0.1947
vn -0.7240 -0.6617 0.1947
vn -0.4911 -0.7947 0.3568
vn -0.4089 -0.6617 0.6284
vn 0.7002 -0.6617 -0.2680
vn 0.6071 -0.7947 0.0000
vn 0.3313 -0.9435 0.0000
vn -0.0385 -0.6617 0.7488
vn 0.1876 -0.7947 0.5773
vn 0.4713 -0.6617 0.5831
usemtl Material.001
s off
f 48/1/1 53/2/1 43/3/1
f 57/4/2 52/5/2 70/6/2
f 49/7/3 45/8/3 84/9/3
f 50/10/4 86/11/4 98/12/4
f 51/13/5 100/14/5 76/15/5
f 58/16/6 72/17/6 117/18/6
f 66/19/7 61/20/7 131/21/7
f 94/22/8 89/23/8 145/24/8
f 108/25/9 103/26/9 159/27/9
f 81/28/10 112/29/10 173/30/10
f 60/31/11 119/32/11 137/33/11
f 69/34/12 133/35/12 151/36/12
f 97/37/13 147/38/13 165/39/13
f 111/40/14 161/41/14 179/42/14
f 83/43/15 175/44/15 123/45/15
f 142/46/16 187/47/16 212/48/16
f 156/49/17 192/50/17 226/51/17
f 170/52/18 197/53/18 231/54/18
f 184/55/19 202/56/19 236/57/19
f 128/58/20 207/59/20 218/60/20
f 217/61/21 237/62/21 222/63/21
f 39/64/22 209/65/22 238/66/22
f 208/67/23 186/68/23 240/69/23
f 239/70/24 232/71/24 225/72/24
f 42/73/25 204/74/25 233/75/25
f 203/76/26 172/77/26 235/78/26
f 234/79/27 227/80/27 224/81/27
f 41/82/28 199/83/28 228/84/28
f 198/85/29 158/86/29 230/87/29
f 229/88/30 213/89/30 223/90/30
f 40/91/31 194/92/31 214/93/31
f 193/94/32 144/95/32 216/96/32
f 215/97/33 219/98/33 12/99/33
f 38/100/34 189/101/34 220/102/34
f 188/103/35 130/104/35 221/105/35
f 122/106/36 210/107/36 127/108/36
f 24/109/37 176/110/37 211/111/37
f 174/112/38 185/113/38 37/114/38
f 178/115/39 205/116/39 183/117/39
f 32/118/40 162/119/40 206/120/40
f 160/121/41 171/122/41 36/123/41
f 164/124/42 200/125/42 169/126/42
f 30/127/43 148/128/43 201/129/43
f 146/130/44 157/131/44 35/132/44
f 150/133/45 195/134/45 155/135/45
f 28/136/46 134/137/46 196/138/46
f 132/139/47 143/140/47 34/141/47
f 136/142/48 190/143/48 141/144/48
f 26/145/49 120/146/49 191/147/49
f 118/148/50 129/149/50 33/150/50
f 177/151/51 180/152/51 10/153/51
f 31/154/52 114/155/52 181/156/52
f 113/157/53 110/158/53 182/159/53
f 163/160/54 166/161/54 9/162/54
f 29/163/55 105/164/55 167/165/55
f 104/166/56 96/167/56 168/168/56
f 149/169/57 152/170/57 8/171/57
f 27/172/58 91/173/58 153/174/58
f 90/175/59 68/176/59 154/177/59
f 135/178/60 138/179/60 7/180/60
f 25/181/61 63/182/61 139/183/61
f 62/184/62 59/185/62 140/186/62
f 121/187/63 124/188/63 11/189/63
f 23/190/64 73/191/64 125/192/64
f 71/193/65 82/194/65 126/195/65
f 75/196/66 115/197/66 80/198/66
f 17/199/67 101/200/67 116/201/67
f 99/202/68 109/203/68 22/204/68
f 102/205/69 106/206/69 5/207/69
f 20/208/70 87/209/70 107/210/70
f 85/211/71 95/212/71 21/213/71
f 88/214/72 92/215/72 4/216/72
f 18/217/73 46/218/73 93/219/73
f 44/220/74 67/221/74 19/222/74
f 74/223/75 77/224/75 6/225/75
f 16/226/76 54/227/76 78/228/76
f 56/229/77 1/230/77 79/231/77
f 47/232/78 64/233/78 3/234/78
f 13/235/79 55/236/79 65/237/79
f 14/238/80 2/239/80 15/240/80
